<?xml version="1.0" encoding="UTF-8" standalone="no"?>
<!DOCTYPE svg PUBLIC "-//W3C//DTD SVG 1.1//EN"
 "http://www.w3.org/Graphics/SVG/1.1/DTD/svg11.dtd">
<!-- Generated by graphviz version 2.43.0 (0)
 -->
<!-- Title: structs Pages: 1 -->
<svg width="1012pt" height="382pt"
 viewBox="0.00 0.00 1012.00 382.00" xmlns="http://www.w3.org/2000/svg" xmlns:xlink="http://www.w3.org/1999/xlink">
<g id="graph0" class="graph" transform="scale(1 1) rotate(0) translate(4 378)">
<title>structs</title>
<polygon fill="white" stroke="transparent" points="-4,4 -4,-378 1008,-378 1008,4 -4,4"/>
<!-- root -->
<g id="node1" class="node">
<title>root</title>
<ellipse fill="none" stroke="black" cx="18" cy="-149" rx="18" ry="18"/>
<text text-anchor="middle" x="18" y="-145.3" font-family="Times,serif" font-size="14.00"> </text>
</g>
<!-- N0000 -->
<g id="node2" class="node">
<title>N0000</title>
<polygon fill="none" stroke="black" points="80.5,-149 80.5,-170 134.5,-170 134.5,-149 80.5,-149"/>
<text text-anchor="start" x="87" y="-155.8" font-family="Times,serif" font-size="14.00">plotly</text>
<polygon fill="none" stroke="black" points="134.5,-149 134.5,-170 177.5,-170 177.5,-149 134.5,-149"/>
<text text-anchor="start" x="137.5" y="-155.8" font-family="Times,serif" font-size="14.00">    </text>
<polygon fill="none" stroke="black" points="80.5,-128 80.5,-149 134.5,-149 134.5,-128 80.5,-128"/>
<text text-anchor="start" x="83.5" y="-134.8" font-family="Times,serif" font-size="14.00">source</text>
<polygon fill="none" stroke="black" points="134.5,-128 134.5,-149 177.5,-149 177.5,-128 134.5,-128"/>
</g>
<!-- root&#45;&gt;N0000 -->
<g id="edge1" class="edge">
<title>root&#45;&gt;N0000</title>
<path fill="none" stroke="black" d="M36.43,-149C43.56,-149 52.29,-149 61.5,-149"/>
<polygon fill="black" stroke="black" points="61.62,-152.5 71.62,-149 61.62,-145.5 61.62,-152.5"/>
</g>
<!-- N0001 -->
<g id="node3" class="node">
<title>N0001</title>
<polygon fill="none" stroke="black" points="249.5,-194 249.5,-215 328.5,-215 328.5,-194 249.5,-194"/>
<text text-anchor="start" x="266.5" y="-200.8" font-family="Times,serif" font-size="14.00">layout</text>
<polygon fill="none" stroke="black" points="328.5,-194 328.5,-215 371.5,-215 371.5,-194 328.5,-194"/>
<text text-anchor="start" x="331.5" y="-200.8" font-family="Times,serif" font-size="14.00">    </text>
<polygon fill="none" stroke="black" points="249.5,-173 249.5,-194 328.5,-194 328.5,-173 249.5,-173"/>
<text text-anchor="start" x="252.5" y="-179.8" font-family="Times,serif" font-size="14.00">maintrace</text>
<polygon fill="none" stroke="black" points="328.5,-173 328.5,-194 371.5,-194 371.5,-173 328.5,-173"/>
</g>
<!-- N0000&#45;&gt;N0001 -->
<g id="edge2" class="edge">
<title>N0000:p_0&#45;&gt;N0001</title>
<path fill="none" stroke="black" d="M178.5,-160C195.88,-160 214.16,-162.84 231.36,-166.88"/>
<polygon fill="black" stroke="black" points="230.8,-170.34 241.35,-169.38 232.5,-163.55 230.8,-170.34"/>
</g>
<!-- N0011 -->
<g id="node13" class="node">
<title>N0011</title>
<polygon fill="none" stroke="black" points="229.5,-126 229.5,-147 292.5,-147 292.5,-126 229.5,-126"/>
<text text-anchor="start" x="249" y="-132.8" font-family="Times,serif" font-size="14.00">csv</text>
<polygon fill="none" stroke="black" points="292.5,-126 292.5,-147 392.5,-147 392.5,-126 292.5,-126"/>
<text text-anchor="start" x="295.5" y="-132.8" font-family="Times,serif" font-size="14.00">satellites.csv</text>
<polygon fill="none" stroke="black" points="229.5,-105 229.5,-126 292.5,-126 292.5,-105 229.5,-105"/>
<text text-anchor="start" x="244" y="-111.8" font-family="Times,serif" font-size="14.00">keep</text>
<polygon fill="none" stroke="black" points="292.5,-105 292.5,-126 392.5,-126 392.5,-105 292.5,-105"/>
<text text-anchor="start" x="295.5" y="-111.8" font-family="Times,serif" font-size="14.00">radius &gt; 100</text>
<polygon fill="none" stroke="black" points="229.5,-84 229.5,-105 292.5,-105 292.5,-84 229.5,-84"/>
<text text-anchor="start" x="244" y="-90.8" font-family="Times,serif" font-size="14.00">pkey</text>
<polygon fill="none" stroke="black" points="292.5,-84 292.5,-105 392.5,-105 392.5,-84 292.5,-84"/>
<text text-anchor="start" x="322.5" y="-90.8" font-family="Times,serif" font-size="14.00">name</text>
<polygon fill="none" stroke="black" points="229.5,-63 229.5,-84 292.5,-84 292.5,-63 229.5,-63"/>
<text text-anchor="start" x="232.5" y="-69.8" font-family="Times,serif" font-size="14.00">textcols</text>
<polygon fill="none" stroke="black" points="292.5,-63 292.5,-84 392.5,-84 392.5,-63 292.5,-63"/>
<text text-anchor="start" x="324" y="-69.8" font-family="Times,serif" font-size="14.00">    </text>
</g>
<!-- N0000&#45;&gt;N0011 -->
<g id="edge12" class="edge">
<title>N0000:p_1&#45;&gt;N0011</title>
<path fill="none" stroke="black" d="M178.5,-138C189.09,-138 200.03,-136.97 210.85,-135.28"/>
<polygon fill="black" stroke="black" points="211.5,-138.72 220.75,-133.55 210.3,-131.82 211.5,-138.72"/>
</g>
<!-- N0002 -->
<g id="node4" class="node">
<title>N0002</title>
<polygon fill="none" stroke="black" points="444,-334 444,-355 487,-355 487,-334 444,-334"/>
<text text-anchor="start" x="447" y="-340.8" font-family="Times,serif" font-size="14.00">yaxis</text>
<polygon fill="none" stroke="black" points="487,-334 487,-355 650,-355 650,-334 487,-334"/>
<text text-anchor="start" x="550" y="-340.8" font-family="Times,serif" font-size="14.00">    </text>
<polygon fill="none" stroke="black" points="444,-313 444,-334 487,-334 487,-313 444,-313"/>
<text text-anchor="start" x="450.5" y="-319.8" font-family="Times,serif" font-size="14.00">title</text>
<polygon fill="none" stroke="black" points="487,-313 487,-334 650,-334 650,-313 487,-313"/>
<text text-anchor="start" x="490" y="-319.8" font-family="Times,serif" font-size="14.00">太陽系天然衛星軌道常數</text>
<polygon fill="none" stroke="black" points="444,-292 444,-313 487,-313 487,-292 444,-292"/>
<text text-anchor="start" x="447" y="-298.8" font-family="Times,serif" font-size="14.00">xaxis</text>
<polygon fill="none" stroke="black" points="487,-292 487,-313 650,-313 650,-292 487,-292"/>
</g>
<!-- N0001&#45;&gt;N0002 -->
<g id="edge3" class="edge">
<title>N0001:p_0&#45;&gt;N0002</title>
<path fill="none" stroke="black" d="M372.5,-205C409.55,-205 405.83,-237.5 436,-259 447.59,-267.26 460.29,-275.47 472.81,-283.13"/>
<polygon fill="black" stroke="black" points="471.06,-286.16 481.43,-288.34 474.68,-280.17 471.06,-286.16"/>
</g>
<!-- N0005 -->
<g id="node7" class="node">
<title>N0005</title>
<polygon fill="none" stroke="black" points="452,-225 452,-246 528,-246 528,-225 452,-225"/>
<text text-anchor="start" x="471.5" y="-231.8" font-family="Times,serif" font-size="14.00">xaxis</text>
<polygon fill="none" stroke="black" points="528,-225 528,-246 642,-246 642,-225 528,-225"/>
<text text-anchor="start" x="566.5" y="-231.8" font-family="Times,serif" font-size="14.00">    </text>
<polygon fill="none" stroke="black" points="452,-204 452,-225 528,-225 528,-204 452,-204"/>
<text text-anchor="start" x="455" y="-210.8" font-family="Times,serif" font-size="14.00">hovertext</text>
<polygon fill="none" stroke="black" points="528,-204 528,-225 642,-225 642,-204 528,-204"/>
<text text-anchor="start" x="531" y="-210.8" font-family="Times,serif" font-size="14.00">name 繞 planet</text>
<polygon fill="none" stroke="black" points="452,-183 452,-204 528,-204 528,-183 452,-183"/>
<text text-anchor="start" x="476" y="-189.8" font-family="Times,serif" font-size="14.00">size</text>
<polygon fill="none" stroke="black" points="528,-183 528,-204 642,-204 642,-183 528,-183"/>
<polygon fill="none" stroke="black" points="452,-162 452,-183 528,-183 528,-162 452,-162"/>
<text text-anchor="start" x="471.5" y="-168.8" font-family="Times,serif" font-size="14.00">yaxis</text>
<polygon fill="none" stroke="black" points="528,-162 528,-183 642,-183 642,-162 528,-162"/>
<polygon fill="none" stroke="black" points="452,-141 452,-162 528,-162 528,-141 452,-141"/>
<text text-anchor="start" x="472" y="-147.8" font-family="Times,serif" font-size="14.00">color</text>
<polygon fill="none" stroke="black" points="528,-141 528,-162 642,-162 642,-141 528,-141"/>
<polygon fill="none" stroke="black" points="452,-120 452,-141 528,-141 528,-120 452,-120"/>
<text text-anchor="start" x="458" y="-126.8" font-family="Times,serif" font-size="14.00">maintext</text>
<polygon fill="none" stroke="black" points="528,-120 528,-141 642,-141 642,-120 528,-120"/>
<text text-anchor="start" x="565" y="-126.8" font-family="Times,serif" font-size="14.00">name</text>
</g>
<!-- N0001&#45;&gt;N0005 -->
<g id="edge6" class="edge">
<title>N0001:p_1&#45;&gt;N0005</title>
<path fill="none" stroke="black" d="M372.5,-183C392.21,-183 413.18,-183 433.48,-183"/>
<polygon fill="black" stroke="black" points="433.71,-186.5 443.71,-183 433.71,-179.5 433.71,-186.5"/>
</g>
<!-- N0003 -->
<g id="node5" class="node">
<title>N0003</title>
<polygon fill="none" stroke="black" points="734,-345 734,-366 772,-366 772,-345 734,-345"/>
<text text-anchor="start" x="737" y="-351.8" font-family="Times,serif" font-size="14.00">type</text>
<polygon fill="none" stroke="black" points="772,-345 772,-366 800,-366 800,-345 772,-345"/>
<text text-anchor="start" x="775" y="-351.8" font-family="Times,serif" font-size="14.00">log</text>
</g>
<!-- N0002&#45;&gt;N0003 -->
<g id="edge4" class="edge">
<title>N0002:p_0&#45;&gt;N0003</title>
<path fill="none" stroke="black" d="M651,-345C672.26,-345 695.64,-346.89 715.73,-349.1"/>
<polygon fill="black" stroke="black" points="715.57,-352.6 725.91,-350.27 716.38,-345.65 715.57,-352.6"/>
</g>
<!-- N0004 -->
<g id="node6" class="node">
<title>N0004</title>
<polygon fill="none" stroke="black" points="734,-291 734,-312 772,-312 772,-291 734,-291"/>
<text text-anchor="start" x="737" y="-297.8" font-family="Times,serif" font-size="14.00">type</text>
<polygon fill="none" stroke="black" points="772,-291 772,-312 800,-312 800,-291 772,-291"/>
<text text-anchor="start" x="775" y="-297.8" font-family="Times,serif" font-size="14.00">log</text>
</g>
<!-- N0002&#45;&gt;N0004 -->
<g id="edge5" class="edge">
<title>N0002:p_2&#45;&gt;N0004</title>
<path fill="none" stroke="black" d="M651,-302C672.17,-302 695.53,-302 715.63,-302"/>
<polygon fill="black" stroke="black" points="715.82,-305.5 725.82,-302 715.82,-298.5 715.82,-305.5"/>
</g>
<!-- N0006 -->
<g id="node8" class="node">
<title>N0006</title>
<polygon fill="none" stroke="black" points="703,-237 703,-258 742,-258 742,-237 703,-237"/>
<text text-anchor="start" x="706" y="-243.8" font-family="Times,serif" font-size="14.00">expr</text>
<polygon fill="none" stroke="black" points="742,-237 742,-258 831,-258 831,-237 742,-237"/>
<text text-anchor="start" x="745" y="-243.8" font-family="Times,serif" font-size="14.00">orbit_major</text>
</g>
<!-- N0005&#45;&gt;N0006 -->
<g id="edge7" class="edge">
<title>N0005:p_0&#45;&gt;N0006</title>
<path fill="none" stroke="black" d="M643,-236C656.55,-236 670.91,-236.73 684.84,-237.83"/>
<polygon fill="black" stroke="black" points="684.63,-241.33 694.89,-238.69 685.23,-234.35 684.63,-241.33"/>
</g>
<!-- N0007 -->
<g id="node9" class="node">
<title>N0007</title>
<polygon fill="none" stroke="black" points="702,-183 702,-204 741,-204 741,-183 702,-183"/>
<text text-anchor="start" x="705" y="-189.8" font-family="Times,serif" font-size="14.00">expr</text>
<polygon fill="none" stroke="black" points="741,-183 741,-204 832,-204 832,-183 741,-183"/>
<text text-anchor="start" x="744" y="-189.8" font-family="Times,serif" font-size="14.00">sqrt(radius)</text>
</g>
<!-- N0005&#45;&gt;N0007 -->
<g id="edge8" class="edge">
<title>N0005:p_2&#45;&gt;N0007</title>
<path fill="none" stroke="black" d="M643,-194C656.1,-194 669.99,-194 683.53,-194"/>
<polygon fill="black" stroke="black" points="683.81,-197.5 693.81,-194 683.81,-190.5 683.81,-197.5"/>
</g>
<!-- N0008 -->
<g id="node10" class="node">
<title>N0008</title>
<polygon fill="none" stroke="black" points="711,-129 711,-150 750,-150 750,-129 711,-129"/>
<text text-anchor="start" x="714" y="-135.8" font-family="Times,serif" font-size="14.00">expr</text>
<polygon fill="none" stroke="black" points="750,-129 750,-150 823,-150 823,-129 750,-129"/>
<text text-anchor="start" x="753" y="-135.8" font-family="Times,serif" font-size="14.00">rev_cycle</text>
</g>
<!-- N0005&#45;&gt;N0008 -->
<g id="edge9" class="edge">
<title>N0005:p_3&#45;&gt;N0008</title>
<path fill="none" stroke="black" d="M643,-172C665.29,-172 689.13,-167.02 709.84,-160.99"/>
<polygon fill="black" stroke="black" points="710.88,-164.33 719.42,-158.06 708.84,-157.63 710.88,-164.33"/>
</g>
<!-- N0009 -->
<g id="node11" class="node">
<title>N0009</title>
<polygon fill="none" stroke="black" points="708,-78 708,-99 774,-99 774,-78 708,-78"/>
<text text-anchor="start" x="711" y="-84.8" font-family="Times,serif" font-size="14.00">colname</text>
<polygon fill="none" stroke="black" points="774,-78 774,-99 826,-99 826,-78 774,-78"/>
<text text-anchor="start" x="777" y="-84.8" font-family="Times,serif" font-size="14.00">planet</text>
<polygon fill="none" stroke="black" points="708,-57 708,-78 774,-78 774,-57 708,-57"/>
<text text-anchor="start" x="715.5" y="-63.8" font-family="Times,serif" font-size="14.00">default</text>
<polygon fill="none" stroke="black" points="774,-57 774,-78 826,-78 826,-57 774,-57"/>
<text text-anchor="start" x="780" y="-63.8" font-family="Times,serif" font-size="14.00">#000</text>
<polygon fill="none" stroke="black" points="708,-36 708,-57 774,-57 774,-36 708,-36"/>
<text text-anchor="start" x="715.5" y="-42.8" font-family="Times,serif" font-size="14.00">palette</text>
<polygon fill="none" stroke="black" points="774,-36 774,-57 826,-57 826,-36 774,-36"/>
<text text-anchor="start" x="781.5" y="-42.8" font-family="Times,serif" font-size="14.00">    </text>
</g>
<!-- N0005&#45;&gt;N0009 -->
<g id="edge10" class="edge">
<title>N0005:p_4&#45;&gt;N0009</title>
<path fill="none" stroke="black" d="M643,-151C671.27,-151 670.66,-128.95 694,-113 695.83,-111.75 697.69,-110.49 699.58,-109.23"/>
<polygon fill="black" stroke="black" points="701.55,-112.13 707.96,-103.7 697.69,-106.28 701.55,-112.13"/>
</g>
<!-- N0010 -->
<g id="node12" class="node">
<title>N0010</title>
<polygon fill="none" stroke="black" points="884,-67 884,-88 952,-88 952,-67 884,-67"/>
<text text-anchor="start" x="891.5" y="-73.8" font-family="Times,serif" font-size="14.00">Uranus</text>
<polygon fill="none" stroke="black" points="952,-67 952,-88 996,-88 996,-67 952,-67"/>
<text text-anchor="start" x="956" y="-73.8" font-family="Times,serif" font-size="14.00">#40f</text>
<polygon fill="none" stroke="black" points="884,-46 884,-67 952,-67 952,-46 884,-46"/>
<text text-anchor="start" x="887" y="-52.8" font-family="Times,serif" font-size="14.00">Neptune</text>
<polygon fill="none" stroke="black" points="952,-46 952,-67 996,-67 996,-46 952,-46"/>
<text text-anchor="start" x="956" y="-52.8" font-family="Times,serif" font-size="14.00">#04f</text>
<polygon fill="none" stroke="black" points="884,-25 884,-46 952,-46 952,-25 884,-25"/>
<text text-anchor="start" x="893.5" y="-31.8" font-family="Times,serif" font-size="14.00">Jupiter</text>
<polygon fill="none" stroke="black" points="952,-25 952,-46 996,-46 996,-25 952,-25"/>
<text text-anchor="start" x="955" y="-31.8" font-family="Times,serif" font-size="14.00">#4c0</text>
<polygon fill="none" stroke="black" points="884,-4 884,-25 952,-25 952,-4 884,-4"/>
<text text-anchor="start" x="893.5" y="-10.8" font-family="Times,serif" font-size="14.00">Saturn</text>
<polygon fill="none" stroke="black" points="952,-4 952,-25 996,-25 996,-4 952,-4"/>
<text text-anchor="start" x="956" y="-10.8" font-family="Times,serif" font-size="14.00">#f00</text>
</g>
<!-- N0009&#45;&gt;N0010 -->
<g id="edge11" class="edge">
<title>N0009:p_2&#45;&gt;N0010</title>
<path fill="none" stroke="black" d="M827,-46C839.5,-46 852.79,-46 865.69,-46"/>
<polygon fill="black" stroke="black" points="865.92,-49.5 875.92,-46 865.92,-42.5 865.92,-49.5"/>
</g>
<!-- N0012 -->
<g id="node14" class="node">
<title>N0012</title>
<text text-anchor="start" x="516" y="-79.8" font-family="Times,serif" font-size="14.00">0</text>
<polygon fill="none" stroke="black" points="528,-73 528,-94 580,-94 580,-73 528,-73"/>
<text text-anchor="start" x="534" y="-79.8" font-family="Times,serif" font-size="14.00">name</text>
<text text-anchor="start" x="516" y="-58.8" font-family="Times,serif" font-size="14.00">1</text>
<polygon fill="none" stroke="black" points="528,-52 528,-73 580,-73 580,-52 528,-52"/>
<text text-anchor="start" x="531" y="-58.8" font-family="Times,serif" font-size="14.00">planet</text>
</g>
<!-- N0011&#45;&gt;N0012 -->
<g id="edge13" class="edge">
<title>N0011:p_3&#45;&gt;N0012</title>
<path fill="none" stroke="black" d="M393.5,-73C427.6,-73 466,-73 495.73,-73"/>
<polygon fill="black" stroke="black" points="495.86,-76.5 505.86,-73 495.86,-69.5 495.86,-76.5"/>
</g>
</g>
</svg>
